<svg width="34" height="34" viewBox="0 0 34 34" fill="none" xmlns="http://www.w3.org/2000/svg">
<circle cx="17" cy="17" r="17" fill="#00A693"/>
<path d="M25.1111 22.4444C25.1111 22.857 24.9472 23.2527 24.6555 23.5444C24.3638 23.8361 23.9681 24 23.5556 24H9.55556C9.143 24 8.74734 23.8361 8.45561 23.5444C8.16389 23.2527 8 22.857 8 22.4444V13.8889C8 13.4763 8.16389 13.0807 8.45561 12.7889C8.74734 12.4972 9.143 12.3333 9.55556 12.3333H12.6667L14.2222 10H18.8889L20.4444 12.3333H23.5556C23.9681 12.3333 24.3638 12.4972 24.6555 12.7889C24.9472 13.0807 25.1111 13.4763 25.1111 13.8889V22.4444Z" stroke="white" stroke-linecap="round" stroke-linejoin="round"/>
<path d="M16.5554 20.8888C18.2737 20.8888 19.6666 19.4959 19.6666 17.7777C19.6666 16.0595 18.2737 14.6666 16.5554 14.6666C14.8372 14.6666 13.4443 16.0595 13.4443 17.7777C13.4443 19.4959 14.8372 20.8888 16.5554 20.8888Z" stroke="white" stroke-linecap="round" stroke-linejoin="round"/>
<circle cx="25" cy="24" r="5" fill="#00A693"/>
<path d="M25 21V27" stroke="white" stroke-linecap="round" stroke-linejoin="round"/>
<path d="M22 24H28" stroke="white" stroke-linecap="round" stroke-linejoin="round"/>
</svg>
