<svg width="20" height="17" viewBox="0 0 20 17" fill="none" xmlns="http://www.w3.org/2000/svg">
<path d="M14.3333 15.9999V14.3333C14.3333 13.4492 13.9821 12.6014 13.357 11.9763C12.7319 11.3511 11.8841 10.9999 11 10.9999H4.33333C3.44928 10.9999 2.60143 11.3511 1.97631 11.9763C1.35119 12.6014 1 13.4492 1 14.3333V15.9999" stroke="#565656" stroke-linecap="round" stroke-linejoin="round"/>
<path d="M7.66683 7.66667C9.50778 7.66667 11.0002 6.17428 11.0002 4.33333C11.0002 2.49238 9.50778 1 7.66683 1C5.82588 1 4.3335 2.49238 4.3335 4.33333C4.3335 6.17428 5.82588 7.66667 7.66683 7.66667Z" stroke="#565656" stroke-linecap="round" stroke-linejoin="round"/>
<path d="M19.3333 16V14.3333C19.3327 13.5948 19.0869 12.8773 18.6344 12.2936C18.1819 11.7099 17.5484 11.293 16.8333 11.1083" stroke="#565656" stroke-linecap="round" stroke-linejoin="round"/>
<path d="M13.5002 1.1084C14.2173 1.29198 14.8528 1.70898 15.3066 2.29366C15.7604 2.87833 16.0068 3.59742 16.0068 4.33756C16.0068 5.07771 15.7604 5.7968 15.3066 6.38147C14.8528 6.96615 14.2173 7.38315 13.5002 7.56673" stroke="#565656" stroke-linecap="round" stroke-linejoin="round"/>
</svg>
